P3
10 10
255
150 30 30
150 30 30
150 30 30
150 30 30
150 30 30
150 30 30
150 30 30
150 30 30
150 30 30
150 30 30
150 30 30
150 30 30
150 30 30
150 30 30
150 30 30
150 30 30
150 30 30
150 30 30
150 30 30
150 30 30
150 30 30
150 30 30
150 30 30
150 30 30
150 30 30
150 30 30
150 30 30
150 30 30
150 30 30
150 30 30
150 30 30
150 30 30
150 30 30
150 30 30
150 30 30
150 30 30
150 30 30
150 30 30
150 30 30
150 30 30
150 30 30
150 30 30
150 30 30
150 30 30
0 0 0
0 0 0
150 30 30
150 30 30
150 30 30
150 30 30
150 30 30
150 30 30
150 30 30
150 30 30
0 0 0
0 0 0
150 30 30
150 30 30
150 30 30
150 30 30
150 30 30
150 30 30
150 30 30
150 30 30
150 30 30
150 30 30
150 30 30
150 30 30
150 30 30
150 30 30
150 30 30
150 30 30
150 30 30
150 30 30
150 30 30
150 30 30
150 30 30
150 30 30
150 30 30
150 30 30
150 30 30
150 30 30
150 30 30
150 30 30
150 30 30
150 30 30
150 30 30
150 30 30
150 30 30
150 30 30
150 30 30
150 30 30
150 30 30
150 30 30
150 30 30
150 30 30
150 30 30
150 30 30
150 30 30
150 30 30
