P3
10 10
255
170 120 60
170 120 60
170 120 60
170 120 60
170 120 60
170 120 60
170 120 60
170 120 60
170 120 60
170 120 60
170 120 60
170 120 60
170 120 60
170 120 60
170 120 60
170 120 60
170 120 60
170 120 60
170 120 60
170 120 60
170 120 60
170 120 60
170 120 60
170 120 60
170 120 60
170 120 60
170 120 60
170 120 60
170 120 60
170 120 60
170 120 60
170 120 60
170 120 60
170 120 60
170 120 60
170 120 60
170 120 60
170 120 60
170 120 60
170 120 60
170 120 60
170 120 60
170 120 60
170 120 60
0 0 0
0 0 0
170 120 60
170 120 60
170 120 60
170 120 60
170 120 60
170 120 60
170 120 60
170 120 60
0 0 0
0 0 0
170 120 60
170 120 60
170 120 60
170 120 60
170 120 60
170 120 60
170 120 60
170 120 60
170 120 60
170 120 60
170 120 60
170 120 60
170 120 60
170 120 60
170 120 60
170 120 60
170 120 60
170 120 60
170 120 60
170 120 60
170 120 60
170 120 60
170 120 60
170 120 60
170 120 60
170 120 60
170 120 60
170 120 60
170 120 60
170 120 60
170 120 60
170 120 60
170 120 60
170 120 60
170 120 60
170 120 60
170 120 60
170 120 60
170 120 60
170 120 60
170 120 60
170 120 60
170 120 60
170 120 60
